<svg width="24" height="24" viewBox="0 0 24 24" fill="none" xmlns="http://www.w3.org/2000/svg">
<path d="M24.0001 12.276C24.0001 11.4603 23.9326 10.6402 23.7887 9.83774H12.2418V14.4586H18.8542C18.5798 15.9489 17.6981 17.2672 16.4071 18.105V21.1032H20.352C22.6686 19.0133 24.0001 15.9268 24.0001 12.276Z" fill="#4285F4"/>
<path d="M12.2414 24C15.5431 24 18.3274 22.9374 20.3561 21.1032L16.4112 18.1049C15.3136 18.8369 13.8967 19.2513 12.2459 19.2513C9.0522 19.2513 6.3443 17.1393 5.37269 14.2998H1.30185V17.3906C3.38 21.4427 7.61278 24 12.2414 24Z" fill="#34A853"/>
<path d="M5.36857 14.2998C4.85578 12.8095 4.85578 11.1957 5.36857 9.70542V6.61458H1.30222C-0.43407 10.0052 -0.434443 14 1.30185 17.3906L5.36857 14.2998Z" fill="#FBBC04"/>
<path d="M12.2414 4.7495C13.9867 4.72304 15.6735 5.36678 16.9375 6.54844L20.4326 3.12251C18.2195 1.08547 15.2822 -0.0344648 12.2414 0.000808638C7.61278 0.000808638 3.38038 2.55813 1.30222 6.61458L5.36857 9.70542C6.33567 6.8615 9.0477 4.7495 12.2414 4.7495Z" fill="#EA4335"/>
</svg>
