<svg width="128" height="128" viewBox="0 0 128 128" fill="none" xmlns="http://www.w3.org/2000/svg">
<path d="M52.5808 67.8169C52.5808 67.8169 49.2968 69.7279 54.9218 70.3739C61.7358 71.1519 65.2188 71.0399 72.7268 69.6209C72.7268 69.6209 74.7058 70.8579 77.4618 71.9299C60.6258 79.1429 39.3578 71.5119 52.5808 67.8169ZM50.5218 58.4019C50.5218 58.4019 46.8378 61.1309 52.4668 61.7129C59.7468 62.4639 65.4938 62.5259 75.4458 60.6099C75.4458 60.6099 76.8188 62.0059 78.9818 62.7669C58.6298 68.7209 35.9608 63.2359 50.5218 58.4019Z" fill="#0074BD"/>
<path d="M67.8648 42.4309C72.0158 47.2089 66.7768 51.5049 66.7768 51.5049C66.7768 51.5049 77.3098 46.0679 72.4728 39.2569C67.9538 32.9079 64.4908 29.7549 83.2438 18.8789C83.2448 18.8789 53.8058 26.2289 67.8648 42.4309Z" fill="#EA2D2E"/>
<path d="M90.1318 74.7808C90.1318 74.7808 92.5638 76.7858 87.4538 78.3358C77.7378 81.2788 47.0098 82.1668 38.4748 78.4528C35.4088 77.1178 41.1618 75.2658 42.9708 74.8768C44.8578 74.4678 45.9358 74.5428 45.9358 74.5428C42.5238 72.1398 23.8808 79.2618 36.4668 81.3048C70.7908 86.8678 99.0338 78.7988 90.1318 74.7808ZM54.1618 48.6468C54.1618 48.6468 38.5328 52.3598 48.6278 53.7098C52.8918 54.2798 61.3858 54.1488 69.3038 53.4848C75.7728 52.9418 82.2648 51.7808 82.2648 51.7808C82.2648 51.7808 79.9858 52.7588 78.3348 53.8848C62.4608 58.0598 31.8018 56.1148 40.6288 51.8468C48.0918 48.2358 54.1618 48.6468 54.1618 48.6468ZM82.1998 64.3168C98.3348 55.9348 90.8738 47.8788 85.6668 48.9638C84.3938 49.2298 83.8218 49.4598 83.8218 49.4598C83.8218 49.4598 84.2968 48.7158 85.1998 48.3968C95.5018 44.7768 103.423 59.0778 81.8778 64.7418C81.8778 64.7418 82.1248 64.5178 82.1998 64.3168Z" fill="#0074BD"/>
<path d="M72.4738 1.31299C72.4738 1.31299 81.4088 10.252 63.9978 23.995C50.0358 35.022 60.8138 41.308 63.9918 48.493C55.8418 41.139 49.8638 34.665 53.8738 28.641C59.7628 19.799 76.0778 15.51 72.4738 1.31299Z" fill="#EA2D2E"/>
<path d="M55.7488 87.0391C71.2328 88.0291 95.0178 86.4881 95.5808 79.1611C95.5808 79.1611 94.4988 81.9381 82.7818 84.1421C69.5638 86.6301 53.2588 86.3411 43.5908 84.7451C43.5908 84.7451 45.5708 86.3851 55.7488 87.0391Z" fill="#0074BD"/>
<path d="M94.8659 100.181H94.3939V99.9171H95.6639V100.181H95.1939V101.498H94.8649L94.8659 100.181ZM97.4009 100.247H97.3949L96.9269 101.498H96.7109L96.2459 100.247H96.2409V101.498H95.9289V99.9171H96.3859L96.8169 101.036L97.2489 99.9171H97.7029V101.498H97.4009V100.247ZM53.2109 115.037C51.7509 116.303 50.2069 117.015 48.8199 117.015C46.8459 117.015 45.7749 115.829 45.7749 113.93C45.7749 111.875 46.9209 110.37 51.5129 110.37H53.2099V115.037H53.2109ZM57.2419 119.585V105.508C57.2419 101.909 55.1889 99.5351 50.2449 99.5351C47.3589 99.5351 44.8289 100.249 42.7719 101.157L43.3639 103.65C44.9839 103.055 47.0789 102.503 49.1349 102.503C51.9849 102.503 53.2099 103.65 53.2099 106.024V107.803H51.7859C44.8649 107.803 41.7419 110.488 41.7419 114.526C41.7419 118.005 43.7999 119.982 47.6749 119.982C50.1649 119.982 52.0259 118.954 53.7629 117.449L54.0789 119.586H57.2419V119.585ZM70.6939 119.585H65.6669L59.6159 99.8961H64.0069L67.7629 111.995L68.5979 115.63C70.4939 110.372 71.8379 105.034 72.5099 99.8971H76.7809C75.6379 106.378 73.5779 113.495 70.6939 119.585ZM89.9819 115.037C88.5169 116.303 86.9719 117.015 85.5899 117.015C83.6139 117.015 82.5439 115.829 82.5439 113.93C82.5439 111.875 83.6929 110.37 88.2799 110.37H89.9809V115.037H89.9819ZM94.0149 119.585V105.508C94.0149 101.909 91.9559 99.5351 87.0159 99.5351C84.1269 99.5351 81.5979 100.249 79.5409 101.157L80.1339 103.65C81.7539 103.055 83.8519 102.503 85.9079 102.503C88.7539 102.503 89.9819 103.65 89.9819 106.024V107.803H88.5579C81.6349 107.803 78.5129 110.488 78.5129 114.526C78.5129 118.005 80.5689 119.982 84.4429 119.982C86.9339 119.982 88.7919 118.954 90.5339 117.449L90.8519 119.586H94.0149V119.585ZM37.3219 122.931C36.1749 124.61 34.3169 125.939 32.2849 126.688L30.2959 124.343C31.8429 123.549 33.1679 122.268 33.7849 121.074C34.3169 120.011 34.5379 118.644 34.5379 115.373V92.8911H38.8219V115.064C38.8219 119.439 38.4739 121.208 37.3219 122.931Z" fill="#EA2D2E"/>
</svg>
