<svg width="24" height="24" viewBox="0 0 24 24" fill="none" xmlns="http://www.w3.org/2000/svg">
<path d="M5.37214 24H0.396429V7.97643H5.37214V24ZM2.88161 5.79066C1.29054 5.79066 0 4.47278 0 2.88167C1.13882e-08 2.1174 0.303597 1.38444 0.844003 0.844022C1.38441 0.303604 2.11736 0 2.88161 0C3.64586 0 4.3788 0.303604 4.91921 0.844022C5.45962 1.38444 5.76321 2.1174 5.76321 2.88167C5.76321 4.47278 4.47214 5.79066 2.88161 5.79066ZM23.9946 24H19.0296V16.1998C19.0296 14.3409 18.9921 11.9569 16.4427 11.9569C13.8557 11.9569 13.4593 13.9766 13.4593 16.0659V24H8.48893V7.97643H13.2611V10.1622H13.3307C13.995 8.90323 15.6177 7.57463 18.0386 7.57463C23.0743 7.57463 24 10.8908 24 15.198V24H23.9946Z" fill="#0A66C2"/>
</svg>
