<svg width="128" height="128" viewBox="0 0 128 128" fill="none" xmlns="http://www.w3.org/2000/svg">
<path fill-rule="evenodd" clip-rule="evenodd" d="M51.8342 23.0169C55.5902 23.0169 59.3462 23.0749 63.0972 22.9769C64.0922 22.9509 65.8772 23.7739 65.7972 21.7059C65.7362 20.0229 64.1752 20.6319 63.2292 20.6169C58.9922 20.5499 54.7412 20.3889 50.5212 20.6539C47.5182 20.8409 46.6332 19.7009 47.0102 16.9469C47.1402 15.9969 47.0152 15.0129 47.0352 14.0449C47.1672 7.59894 48.7252 5.40494 54.9772 3.81494C61.8652 2.06494 68.9142 2.12294 75.7832 3.63094C81.9582 4.98694 84.5232 9.79094 84.2112 14.2349C83.8312 19.6579 84.1252 25.1279 84.1202 30.5779C84.1112 37.4309 80.5702 41.0679 73.6612 41.1629C67.9712 41.2409 62.2742 41.3029 56.5872 41.1449C49.8092 40.9549 44.8372 46.5849 44.8032 52.9649C44.8032 53.4489 44.8862 53.9489 44.7902 54.4159C44.3022 56.7589 46.2522 60.5459 43.7682 61.2419C39.9882 62.3039 35.5622 62.3039 32.2282 58.9309C31.0982 57.7909 30.1462 56.5139 29.6442 55.0379C26.9652 47.1729 26.5422 39.2079 29.0642 31.2199C30.6362 26.2339 34.9122 23.1329 40.2092 23.0439C44.0832 22.9789 47.9582 23.0309 51.8322 23.0309L51.8342 23.0169ZM58.7362 11.8969C58.5742 9.99394 57.5512 8.60494 55.4402 8.54694C53.1312 8.48694 51.9382 9.88294 51.9352 12.1549C51.9332 14.2609 53.0802 15.6099 55.1762 15.6709C57.4792 15.7379 58.5942 14.3109 58.7362 11.8969Z" fill="#386F9F"/>
<path fill-rule="evenodd" clip-rule="evenodd" d="M80.824 61.5719C76.584 61.5719 72.342 61.5349 68.102 61.6019C67.147 61.6139 65.545 61.0099 65.495 62.6429C65.439 64.4949 67.158 64.0129 68.25 64.0239C72.49 64.0769 76.734 64.1219 80.973 64.0039C83.151 63.9439 84.04 64.3609 84.203 66.9289C84.94 78.5539 79.895 79.5589 70.59 81.6739C65.252 82.8869 59.529 82.2439 54.265 79.8859C49.912 77.9389 47.241 75.1329 47.578 69.8789C47.912 64.6929 47.968 59.4399 47.569 54.2589C47.089 48.0059 50.979 43.4069 58.544 43.4049C63.634 43.4039 68.758 43.0159 73.804 43.4799C81.019 44.1419 86.676 37.8879 86.924 30.6159C86.934 30.3749 86.872 30.1159 86.934 29.8919C87.57 27.6569 85.308 24.3349 88.334 23.2059C92.907 21.5009 98.064 23.2929 100.4 26.7629C103.345 31.1319 103.743 36.2729 104.219 41.2929C104.734 46.7039 103.216 51.7979 100.943 56.6789C99.399 59.9889 96.803 61.5889 93.186 61.5939C89.066 61.5969 84.9469 61.5939 80.826 61.5939C80.824 61.5859 80.824 61.5789 80.824 61.5719ZM79.72 72.3719C79.267 70.3059 78.335 68.8959 75.935 68.8369C73.439 68.7769 72.795 70.6439 72.808 72.3109C72.822 74.0829 73.316 76.2629 76.018 76.0589C78.264 75.8869 79.359 74.4959 79.72 72.3719Z" fill="#FFCF46"/>
<path fill-rule="evenodd" clip-rule="evenodd" d="M14.1289 114.849C14.1289 117.431 14.2459 119.849 14.0739 122.246C13.9999 123.28 15.1399 125.226 12.9709 125.224C11.0589 125.224 10.5679 123.702 10.6289 121.863C10.7459 118.353 10.6629 114.836 10.6629 111.323V103.325C10.6629 98.505 11.9559 96.873 16.5659 95.875C20.8519 94.943 24.2199 96.386 25.9519 100.138C27.6839 103.891 27.8179 107.758 26.0849 111.576C24.3769 115.338 21.2309 116.742 17.2009 115.627C16.2829 115.377 15.3559 115.16 14.1289 114.849ZM14.1289 105.401C14.1289 106.731 14.3089 108.087 14.0919 109.381C13.5899 112.372 15.4999 113.109 17.7519 113.641C19.9789 114.167 21.5059 113.22 22.3989 111.258C23.8999 107.968 24.1519 104.575 23.0119 101.096C21.9999 98.004 19.6629 97.642 16.9349 98.026C14.2409 98.409 13.8759 100.241 14.1109 102.506C14.2109 103.461 14.1289 104.436 14.1289 105.401ZM43.1159 114.689C41.2709 115.169 39.6689 115.681 38.0289 115.989C34.4389 116.66 31.7809 114.689 30.8459 111.095C29.6859 106.647 30.6679 102.216 30.6979 97.778C30.7109 95.755 32.5829 96.544 33.8779 95.46C33.8779 100.21 33.8959 104.31 33.8719 108.407C33.8589 110.465 34.3909 112.157 36.3369 113.242C38.4849 114.44 40.2469 113.299 42.1169 112.53C43.4569 111.979 43.2899 110.854 43.2919 109.784C43.3019 105.912 43.2909 102.044 43.3039 98.172C43.3059 97.217 43.2069 96.05 44.6169 96.097C45.8739 96.138 46.4209 96.885 46.3999 98.255C46.3089 104.662 46.4899 111.078 46.2299 117.476C46.0329 122.314 42.6199 125.269 37.7099 125.486C36.9749 125.517 36.2049 125.585 35.9299 124.673C35.5109 123.269 36.6479 123.534 37.3949 123.295C42.7959 121.577 43.5019 120.551 43.1159 114.689ZM65.9399 98.064C67.3689 97.389 68.1899 96.771 69.0929 96.604C74.1599 95.667 78.0429 96.024 78.0329 102.849C78.0259 106.364 78.0349 109.88 78.0259 113.394C78.0239 114.378 78.0869 115.336 76.6199 115.421C75.0729 115.513 74.7329 114.628 74.7399 113.415C74.7579 110.028 74.8499 106.641 74.8469 103.255C74.8449 100.625 74.3079 98.297 70.9629 98.305C68.0289 98.31 65.9509 100.5 65.9359 103.522C65.9191 106.793 65.9201 110.065 65.9389 113.336C65.9419 114.498 65.9669 115.517 64.2869 115.421C62.7739 115.331 62.9599 114.311 62.9599 113.372C62.9499 104.772 62.9919 96.163 62.9189 87.557C62.9059 86.049 63.5009 85.113 64.8389 85.049C66.7269 84.962 65.8619 86.613 65.8899 87.441C66.0129 90.812 65.9399 94.191 65.9399 98.064ZM81.9299 105.775C81.7389 99.06 84.9239 95.475 90.6899 95.683C93.5839 95.789 95.7549 97.073 97.1559 99.573C99.6309 103.995 99.2959 108.419 96.6179 112.56C94.7779 115.404 91.9479 116.745 88.4979 116.013C85.0959 115.293 82.4319 112.23 81.9499 108.66C81.8219 107.715 81.9299 106.736 81.9299 105.775ZM95.2499 105.932C95.0979 104.76 95.1249 103.126 94.6369 101.668C93.9699 99.668 92.7539 98.058 90.2729 97.948C87.7699 97.84 86.5209 99.303 85.6859 101.328C84.3749 104.507 84.4599 107.699 85.8799 110.821C86.7919 112.832 88.1999 114.304 90.6399 113.896C93.0429 113.495 94.4609 111.92 94.9519 109.583C95.1749 108.524 95.1389 107.415 95.2499 105.933V105.932ZM102.257 106.827C102.257 105.615 102.234 104.405 102.261 103.199C102.317 100.874 101.576 98.298 104.711 97.11C108.301 95.754 111.859 94.738 115.473 96.837C116.825 97.623 117.323 99.051 117.337 100.567C117.374 104.798 117.318 109.031 117.375 113.262C117.395 114.738 117.007 115.476 115.348 115.436C113.53 115.393 113.913 114.153 113.925 113.163C113.968 109.783 114.203 106.406 114.139 103.031C114.055 98.781 111.723 97.048 107.75 98.091C106.102 98.525 105.072 99.325 105.153 101.365C105.314 105.347 105.19 109.343 105.205 113.332C105.209 114.488 105.226 115.512 103.558 115.415C102.03 115.327 102.28 114.27 102.268 113.353C102.24 111.177 102.26 109 102.257 106.827ZM58.6889 97.403C58.4389 97.699 58.2289 98.163 58.0089 98.167C54.0449 98.222 55.1449 101.181 55.0429 103.376C54.9459 105.421 55.0429 107.476 55.0139 109.527C54.9839 111.565 55.1609 113.459 57.6409 114C58.3519 114.154 58.6759 114.564 58.5279 115.274C58.3649 116.058 57.7399 116.027 57.1209 116.019C54.2709 115.969 52.1579 113.954 52.0739 111.004C51.9879 107.99 52.1049 104.969 52.0339 101.958C51.9969 100.528 52.7399 98.703 50.4339 98.136C50.1809 98.075 50.0909 97.358 49.9259 96.949C53.0019 95.984 51.7259 93.331 52.1479 91.318C52.3479 90.365 53.2529 90.104 54.1079 90.023C54.9729 89.941 54.9799 90.641 55.0079 91.226C55.1219 93.546 53.9209 96.651 58.1919 96.482C58.3349 96.477 58.5019 97.044 58.6889 97.402V97.403Z" fill="#386F9F"/>
</svg>
