<svg width="128" height="128" viewBox="0 0 128 128" fill="none" xmlns="http://www.w3.org/2000/svg">
<path d="M64.0002 56.7999C69.1364 56.7999 73.3002 52.6362 73.3002 47.5C73.3002 42.3637 69.1364 38.2 64.0002 38.2C58.8639 38.2 54.7002 42.3637 54.7002 47.5C54.7002 52.6362 58.8639 56.7999 64.0002 56.7999Z" fill="#61DAFB"/>
<path d="M64.0001 81.7C71.3001 88.8 78.5001 93 84.3001 93C86.2001 93 88.0001 92.6 89.5001 91.7C94.7001 88.7 96.6001 81.2 94.8001 70.5C94.5001 68.6 94.1001 66.7 93.6001 64.7C95.6001 64.1 97.4001 63.5 99.2001 62.9C109.3 59 114.9 53.6 114.9 47.7C114.9 41.7 109.3 36.3 99.2001 32.5C97.4001 31.8 95.6001 31.2 93.6001 30.7C94.1001 28.7 94.5001 26.8 94.8001 24.9C96.5001 14 94.6001 6.39998 89.4001 3.39998C87.9001 2.49998 86.1001 2.09998 84.2001 2.09998C78.5001 2.09998 71.2001 6.29997 63.9001 13.4C56.7001 6.29997 49.5001 2.09998 43.7001 2.09998C41.8001 2.09998 40.0001 2.49998 38.5001 3.39998C33.3001 6.39998 31.4001 13.9 33.2001 24.6C33.5001 26.5 33.9001 28.4 34.4001 30.4C32.4001 31 30.6001 31.6 28.8001 32.2C18.7001 36.1 13.1001 41.5 13.1001 47.4C13.1001 53.4 18.7001 58.8 28.8001 62.6C30.6001 63.3 32.4001 63.9 34.4001 64.4C33.9001 66.4 33.5001 68.3 33.2001 70.2C31.5001 80.9 33.4001 88.5 38.5001 91.4C40.0001 92.3 41.8001 92.7 43.7001 92.7C49.5001 92.9 56.7001 88.7 64.0001 81.7ZM58.4001 68.2C60.2001 68.3 62.1001 68.3 64.0001 68.3C65.9001 68.3 67.8001 68.3 69.6001 68.2C67.8001 70.6 65.9001 72.8 64.0001 74.9C62.1001 72.8 60.2001 70.6 58.4001 68.2ZM46.0001 57.9C47.0001 59.6 47.9001 61.2 49.0001 62.8C45.9001 62.4 43.0001 61.9 40.2001 61.3C41.1001 58.6 42.1001 55.8 43.3001 53C44.1001 54.6 45.0001 56.3 46.0001 57.9ZM40.2001 33.8C43.0001 33.2 45.9001 32.7 49.0001 32.3C48.0001 33.9 47.0001 35.5 46.0001 37.2C45.0001 38.9 44.1001 40.5 43.3001 42.2C42.0001 39.3 41.0001 36.5 40.2001 33.8ZM45.7001 47.5C47.0001 44.8 48.4001 42.1 50.0001 39.4C51.5001 36.8 53.2001 34.2 54.9001 31.6C57.9001 31.4 60.9001 31.3 64.0001 31.3C67.2001 31.3 70.2001 31.4 73.1001 31.6C74.9001 34.2 76.5001 36.8 78.0001 39.4C79.6001 42.1 81.0001 44.8 82.3001 47.5C81.0001 50.2 79.6001 52.9 78.0001 55.6C76.5001 58.2 74.8001 60.8 73.1001 63.4C70.1001 63.6 67.1001 63.7 64.0001 63.7C60.8001 63.7 57.8001 63.6 54.9001 63.4C53.1001 60.8 51.5001 58.2 50.0001 55.6C48.4001 52.9 47.0001 50.2 45.7001 47.5ZM84.8001 42.1L82.1001 37.1C81.1001 35.4 80.2001 33.8 79.1001 32.2C82.2001 32.6 85.1001 33.1 87.9001 33.7C87.0001 36.5 86.0001 39.3 84.8001 42.1ZM84.8001 52.9C86.0001 55.7 87.0001 58.5 87.9001 61.2C85.1001 61.8 82.2001 62.3 79.1001 62.7C80.1001 61.1 81.1001 59.5 82.1001 57.8C83.0001 56.3 83.9001 54.6 84.8001 52.9ZM87.1001 87.6C86.3001 88.1 85.3001 88.3 84.2001 88.3C79.3001 88.3 73.2001 84.3 67.2001 78.3C70.1001 75.2 72.9001 71.7 75.7001 67.8C80.4001 67.4 84.9001 66.7 89.1001 65.7C89.6001 67.5 89.9001 69.3 90.2001 71.1C91.6001 79.6 90.5001 85.7 87.1001 87.6ZM92.3001 34.9C103.5 38.1 110.2 43 110.2 47.5C110.2 51.4 105.6 55.3 97.5001 58.4C95.9001 59 94.1001 59.6 92.3001 60.1C91.0001 56 89.4001 51.8 87.4001 47.5C89.4001 43.2 91.1001 39 92.3001 34.9ZM84.3001 6.69998C85.4001 6.69998 86.3001 6.89998 87.2001 7.39998C90.5001 9.29998 91.7001 15.3 90.3001 23.9C90.0001 25.6 89.6001 27.4 89.2001 29.3C85.0001 28.4 80.5001 27.7 75.8001 27.2C73.1001 23.3 70.2001 19.8 67.3001 16.7C73.3001 10.8 79.4001 6.69998 84.3001 6.69998ZM69.6001 26.8C67.8001 26.7 65.9001 26.7 64.0001 26.7C62.1001 26.7 60.2001 26.7 58.4001 26.8C60.2001 24.4 62.1001 22.2 64.0001 20.1C65.9001 22.2 67.8001 24.5 69.6001 26.8ZM40.9001 7.39998C41.7001 6.89998 42.7001 6.69998 43.8001 6.69998C48.7001 6.69998 54.8001 10.7 60.8001 16.7C57.9001 19.8 55.1001 23.3 52.3001 27.2C47.6001 27.6 43.1001 28.3 38.9001 29.3C38.4001 27.5 38.1001 25.7 37.8001 23.9C36.4001 15.4 37.5001 9.39998 40.9001 7.39998ZM35.7001 60.1C24.5001 56.9 17.8001 52 17.8001 47.5C17.8001 43.6 22.4001 39.7 30.5001 36.6C32.1001 36 33.9001 35.4 35.7001 34.9C37.0001 39 38.6001 43.2 40.6001 47.5C38.6001 51.8 36.9001 56.1 35.7001 60.1ZM37.8001 71.1C38.1001 69.4 38.5001 67.6 38.9001 65.7C43.1001 66.6 47.6001 67.3 52.3001 67.8C55.0001 71.7 57.9001 75.2 60.8001 78.3C54.8001 84.2 48.7001 88.3 43.8001 88.3C42.7001 88.3 41.8001 88.1 40.9001 87.6C37.5001 85.7 36.4001 79.6 37.8001 71.1ZM33.6001 112.3C35.8001 109.6 35.9001 106.6 34.7001 103.6C33.5001 100.6 31.0001 99.2 27.9001 99.1C24.2001 99 20.4001 99.1 16.7001 99.1H16.0001V125H19.0001V115.2H23.7001C24.3001 115.2 24.8001 115.4 25.1001 115.9L31.1001 125.2C31.2001 125.4 31.5001 125.7 31.7001 125.7H35.6001C33.2001 122 30.9001 118.5 28.5001 114.9C30.6001 114.6 32.4001 113.9 33.6001 112.3ZM19.0001 112.1V102.2H20.1001C22.4001 102.2 24.8001 102.1 27.1001 102.3C29.8001 102.4 31.7001 104.5 31.7001 107.2C31.7001 109.9 29.5001 112 26.8001 112.1C24.4001 112.2 22.0001 112.1 19.0001 112.1ZM57.7001 113.4C56.1001 106.4 49.7001 104.6 44.8001 106.8C41.0001 108.5 39.3001 111.8 39.2001 115.9C39.1001 119 40.0001 121.8 42.4001 123.9C45.1001 126.3 48.4001 126.6 51.8001 126C53.7001 125.6 55.4001 124.7 56.7001 123.3C56.2001 122.6 55.7001 121.9 55.2001 121.3C52.4001 123.7 49.3001 124.5 45.9001 122.9C43.7001 121.8 42.6001 119.1 42.4001 117.1H57.9001V115.8C58.0001 114.9 57.9001 114.1 57.7001 113.4ZM42.6001 115C42.3001 112 45.3001 108.8 48.6001 108.8C52.4001 108.7 54.8001 111 54.9001 115H42.6001ZM73.3001 106.3C71.8001 106 70.2001 105.9 68.7001 106C66.3001 106.2 64.2001 107.3 62.5001 109.1C63.0001 109.8 63.4001 110.5 64.0001 111.3C64.2001 111.1 64.4001 110.9 64.6001 110.8C66.2001 109.3 68.1001 108.5 70.4001 108.7C72.2001 108.8 73.9001 109.4 74.4001 111.2C74.8001 112.6 74.7001 114.1 74.8001 115.6C74.5001 115.6 74.4001 115.5 74.3001 115.4C71.9001 113.4 69.2001 113 66.3001 113.7C63.6001 114.4 61.9001 116.5 61.7001 119.2C61.5001 122.3 62.9001 124.6 65.6001 125.7C67.3001 126.4 69.2001 126.4 71.0001 126C72.4001 125.7 73.0001 124.9 75.0001 123.8V125.1H77.8001C77.8001 121.1 77.9001 116.2 77.8001 111.6C77.8001 108.7 76.1001 106.9 73.3001 106.3ZM74.7001 118.9C74.6001 119.2 74.7001 119.5 74.7001 119.8C74.7001 121.9 74.2001 122.6 72.2001 123.4C70.8001 123.9 69.3001 124.1 67.8001 123.6C66.1001 123.1 64.9001 121.6 64.9001 119.9C64.8001 118.2 65.9001 116.5 67.6001 116C69.9001 115.2 72.0001 115.7 73.9001 117.1C74.5001 117.6 74.9001 118.1 74.7001 118.9ZM90.3001 109C92.9001 108.2 95.3001 108.7 97.1001 110.9L97.4001 111.1C98.1001 110.5 98.7001 109.9 99.5001 109.2C99.2001 108.9 99.1001 108.7 98.9001 108.4C96.0001 105.3 90.3001 104.9 86.8001 107.4C81.9001 111 82.0001 118 84.4001 121.7C86.7001 125.2 90.0001 126.4 93.9001 125.9C96.2001 125.6 98.1001 124.5 99.6001 122.6C98.9001 122 98.2001 121.4 97.5001 120.7C97.3001 120.9 97.2001 121 97.1001 121.2C94.4001 124.2 89.9001 123.9 87.5001 120.7C86.1001 118.8 85.8001 116.6 86.2001 114.4C86.4001 111.9 87.7001 109.9 90.3001 109ZM111.1 122.6C110.9 122.7 110.8 122.8 110.8 122.8C110 123.4 109.2 123.5 108.3 123.2C107.4 122.8 107.3 122 107.2 121.2V109.8C107.2 109.6 107.2 110 107.3 109H111.1V106H107.1V101H104.1V106.4H101.5C101.3 106.4 101 106.6 101 106.8C100.9 107.5 101 108 101 109H104.2V121.8C104.2 123.4 104.6 124.8 106 125.6C107.5 126.5 110.4 126.3 111.7 125.2C111.9 125.1 112 124.7 112 124.6C111.7 124 111.4 123.3 111.1 122.6Z" fill="#61DAFB"/>
</svg>
