<svg width="128" height="128" viewBox="0 0 128 128" fill="none" xmlns="http://www.w3.org/2000/svg">
<path d="M80.426 114.348V117.762H100.906V114.348H80.426ZM77.012 107.52H73.602V110.934H77.012V107.52ZM80.426 114.348V110.934H77.012V114.348H80.426ZM73.602 104.106H70.188V107.52H73.602V104.106ZM80.426 90.454V93.868H83.84V90.454H80.426ZM90.668 93.868V90.454H87.254V93.868H83.84V97.282H97.492V93.868H90.668ZM97.492 90.454V93.868H100.906V90.454H97.492ZM107.734 110.934H111.148V107.52H107.734V110.934ZM107.734 114.348V110.934H100.906V114.348H107.734ZM66.773 114.348H53.121V117.762H77.012V114.348H66.773M46.293 117.762V114.348H15.574V117.762H46.293M56.535 104.106V100.692H49.707V110.934H46.293V114.348H53.121V104.106H56.535ZM32.641 46.078H36.055V39.254H32.641V46.078ZM39.465 73.387V66.559H36.055V69.973H25.813V97.282H46.293V93.868H42.879V90.454H39.465V93.868H29.227V73.388H36.055V90.454H39.465V73.387M49.707 69.973V87.039H46.293V93.867H49.707V90.453H53.121V66.559H49.707V69.973ZM49.707 56.321V52.907H46.293V56.321H49.707ZM42.879 56.321V59.735H46.293V56.32H42.879M42.879 63.148V59.734H39.465V66.558H42.879V63.148M29.227 11.945V18.773H32.641V11.945H29.227M18.989 11.945H29.227V8.535H15.574V49.492H12.16V114.347H15.574V52.906H46.293V46.078H42.879V49.492H39.465V46.078H36.055V49.492H29.227V39.254H32.641V32.426H29.227V29.012H25.813V49.492H18.989V11.945M36.055 25.601V18.773H32.641V25.601H36.055ZM42.879 32.425H46.293V25.601H42.879V32.425ZM49.707 39.253H46.293V46.077H49.707V39.253ZM39.465 32.425V39.253H42.879V32.425H39.465ZM36.055 25.601V32.425H39.465V25.601H36.055ZM49.707 18.773H46.293V25.601H49.707V18.773ZM53.121 18.773V11.945H49.707V18.773H53.121ZM114.559 83.625H111.149V107.52H114.559V83.625ZM107.735 80.215V83.625H111.149V80.215H107.735ZM107.735 59.735H111.149V56.32H107.735V59.734M111.149 59.734V69.972H114.559V59.734H111.149ZM100.907 76.8V80.214H107.735V76.8H100.907ZM97.493 69.972H100.907V66.558H97.493V69.972ZM100.907 69.972V73.386H111.149V69.972H100.907ZM70.188 76.8V59.734H66.774V69.972H63.36V63.148H53.121V66.558H59.945V93.867H56.535V100.691H59.945V97.281H66.773V104.105H70.187V90.453H66.773V93.867H63.359V73.387H66.773V76.801H70.187M73.601 80.215V76.801H70.187V80.215H73.601ZM80.425 66.559H90.667V90.454H97.491V87.04H94.077V76.801H100.905V73.387H94.077V66.559H97.491V63.149H80.426V66.559M80.426 73.387V66.559H77.012V80.215H73.602V83.625H77.012V87.039H70.188V90.453H80.426V73.387ZM70.188 52.907H73.602V49.493H66.774V8.535H53.121V11.945H63.359V49.492H56.535V29.012H53.121V32.426H49.707V39.254H53.121V49.492H49.707V52.906H70.187M73.601 56.32H70.187V59.734H73.601V56.32ZM73.601 56.32H77.011V52.906H73.601V56.32ZM77.011 46.078H73.601V49.492H77.011V46.078ZM100.906 52.906V56.32H107.734V52.906H100.906ZM100.906 49.492H77.012V52.906H100.907V49.492M100.907 46.078V49.492H104.321V46.078H100.907ZM97.493 39.254H94.079V42.668H97.493V39.254ZM97.493 32.426H100.907V29.012H94.079V32.426H97.493ZM90.669 39.254H94.079V35.84H90.669V39.254ZM80.427 39.254V35.84H70.188V46.078H73.602V39.254H80.426M83.84 39.254H80.426V46.078H94.078V42.668H83.84V39.254ZM80.426 32.426V35.84H90.668V32.426H80.426ZM77.012 29.012H73.602V32.426H80.426V29.012H77.012ZM83.84 25.602V29.012H94.078V25.602H83.84ZM83.84 18.774H80.426V25.602H83.84V18.774ZM73.602 15.36H70.188V29.012H73.602V15.359M73.602 11.945V15.359H80.426V11.945H73.602ZM94.079 11.945H97.493V8.535H80.426V11.945H94.078M94.078 18.773V15.359H83.84V18.773H94.078ZM104.32 35.84V32.426H100.906V35.84H104.32ZM107.734 35.84H104.32V46.078H107.734V35.84ZM104.32 15.36V11.946H97.492V15.36H104.32ZM107.734 15.36H104.32V22.188H97.492V18.774H94.078V25.602H107.734V15.36Z" fill="black"/>
<path d="M70.188 107.52V110.934H73.602V107.52H70.188ZM73.602 114.348H77.012V110.934H73.602V114.348ZM80.426 90.453H83.84V87.039H80.426V90.453ZM53.121 110.933V114.347H56.535V110.933H53.121ZM59.945 107.519H56.535V110.933H59.945V107.519M63.359 110.933H66.773V107.519H63.359V110.933ZM66.773 110.933V114.347H70.187V110.933H66.773ZM63.359 114.347V110.933H59.945V114.347H63.359ZM63.359 69.972H66.773V66.558H63.359V69.972ZM46.293 80.215H49.707V76.801H46.293V80.215ZM49.707 83.625H46.293V87.039H49.707V83.625ZM46.293 69.973V73.387H49.707V69.973H46.293ZM80.426 80.215V83.625H83.84V80.215H80.426ZM80.426 69.973H83.84V66.559H80.426V69.973ZM83.84 73.387H80.426V76.801H83.84V73.387ZM70.188 59.734V56.32H66.774V59.734H70.188ZM73.602 56.32V52.906H70.188V56.32H73.602Z" fill="#000080"/>
<path d="M70.188 110.934V114.348H73.602V110.934H70.188ZM53.122 107.52V110.934H56.536V107.52H53.122ZM56.536 114.348H59.946V110.934H56.536V114.348ZM66.774 107.52V110.934H70.188V107.52H66.774ZM63.36 110.934V107.52H59.946V110.934H63.36ZM63.36 110.934V114.348H66.774V110.934H63.36ZM49.707 66.559H53.121V63.149H49.707V66.559ZM46.293 80.215V83.625H49.707V80.215H46.293ZM46.293 69.973H49.707V66.559H46.293V69.973ZM49.707 73.387H46.293V76.801H49.707V73.387ZM66.773 63.149H63.359V66.559H66.773V63.149ZM80.425 80.215H83.839V76.801H80.425V80.215ZM83.839 83.625H80.425V87.039H83.839V83.625ZM80.425 69.973V73.387H83.839V69.973H80.425Z" fill="#800080"/>
<path d="M87.254 90.453V87.039H83.84V90.453H87.254ZM42.879 87.039H39.465V90.453H42.879V87.039ZM46.293 93.867V90.453H42.879V93.867H46.293ZM63.359 100.691H66.773V97.281H63.359V100.691ZM66.773 104.105H63.359V107.519H66.773V104.105ZM59.945 100.691V104.105H63.359V100.691H59.945ZM59.945 104.105H56.535V107.519H59.945V104.105ZM46.293 83.625H42.879V87.039H46.293V83.625ZM42.879 76.801V80.215H46.293V76.801H42.879ZM39.465 83.625H42.879V80.215H39.465V83.625ZM42.879 73.387H39.465V76.801H42.879V73.387ZM42.879 66.559H39.465V69.973H42.879V66.559ZM46.293 73.387V69.973H42.879V73.387H46.293ZM46.293 63.149H42.879V66.559H46.293V63.149ZM46.293 59.735V63.149H49.707V59.735H46.293ZM66.773 56.321H63.359V59.735H66.773V56.32M53.121 59.734V56.32H49.707V59.734H53.121ZM59.945 59.734V63.148H63.359V59.734H59.945ZM53.121 59.734V63.148H56.535V59.734H53.121ZM56.535 56.32V52.906H53.121V56.32H56.535ZM59.945 52.906V56.32H63.359V52.906H59.945ZM59.945 56.32H56.535V59.734H59.945V56.32ZM90.668 83.625H87.254V87.039H90.668V83.625ZM90.668 76.801H87.254V80.215H90.668V76.801ZM87.254 73.387H90.668V69.973H87.254V73.387ZM83.84 73.387V76.801H87.254V73.387H83.84ZM83.84 80.215V83.625H87.254V80.215H83.84ZM83.84 66.559V69.973H87.254V66.559H83.84ZM70.188 56.32V52.906H66.774V56.32H70.188Z" fill="#FF00FF"/>
<path d="M87.254 93.867V90.453H83.84V93.867H87.254ZM90.668 87.039H87.254V90.453H90.668V87.039ZM66.773 104.105V107.519H70.187V104.105H66.773ZM46.293 90.453V87.039H42.879V90.453H46.293ZM63.359 104.105H59.945V107.519H63.359V104.105ZM63.359 100.691V104.105H66.773V100.691H63.359ZM59.945 97.281V100.691H63.359V97.281H59.945ZM56.535 104.105H53.121V107.519H56.535V104.105ZM56.535 104.105H59.945V100.691H56.535V104.105ZM42.879 76.801H46.293V73.387H42.879V76.801ZM42.879 80.215V83.625H46.293V80.215H42.879ZM42.879 83.625H39.465V87.039H42.879V83.625ZM42.879 76.801H39.465V80.215H42.879V76.801ZM39.465 73.387H42.879V69.973H39.465V73.387ZM46.293 69.973V66.559H42.879V69.973H46.293ZM49.707 63.149H46.293V66.559H49.707V63.149ZM49.707 56.321H46.293V59.735H49.707V56.32M42.879 59.734V63.148H46.293V59.734H42.879ZM63.359 59.734V63.148H66.773V59.734H63.359ZM66.773 56.32V52.906H63.359V56.32H66.773ZM59.945 56.32V59.734H63.359V56.32H59.945ZM56.535 59.734V56.32H53.121V59.734H56.535ZM56.535 59.734V63.148H59.945V59.734H56.535ZM53.121 63.148V59.734H49.707V63.148H53.121ZM53.121 56.32V52.906H49.707V56.32H53.121ZM56.535 56.32H59.945V52.906H56.535V56.32ZM87.254 83.625H83.84V87.039H87.254V83.625M87.254 83.625H90.668V80.215H87.254V83.625ZM90.668 73.387H87.254V76.801H90.668V73.387ZM90.668 66.559H87.254V69.973H90.668V66.559ZM83.84 76.801V80.215H87.254V76.801H83.84ZM83.84 69.973V73.387H87.254V69.973H83.84Z" fill="#0000FF"/>
<path d="M97.492 90.453H100.906V87.039H97.492V90.453ZM104.32 100.691V104.105H100.906V107.519H83.84V104.105H77.012V100.691H73.602V93.867H70.188V104.105H73.602V107.519H77.012V110.933H80.426V114.347H100.906V110.933H107.734V107.519H111.148V97.281H107.734V100.691H104.32ZM97.492 83.625H94.078V87.039H97.492V83.625ZM100.906 66.559V69.973H111.148V63.149H107.734V66.559H100.906ZM77.012 76.801H73.602V80.215H77.012V76.801ZM73.602 73.387H70.188V76.801H73.602V73.387ZM100.907 63.149H97.493V66.559H100.907V63.149Z" fill="#808000"/>
<path d="M49.707 104.105H46.293V107.519H18.988V110.933H15.574V114.347H46.293V110.933H49.707V104.105ZM56.535 93.867H53.121V100.691H56.535V93.867ZM56.535 93.867H59.945V90.453H56.535V93.867M42.879 52.906V56.32H46.293V52.906H42.879ZM42.879 56.32H39.465V59.734H42.879V56.32ZM25.813 63.148V69.972H36.055V66.558H39.465V63.148H25.813Z" fill="#800000"/>
<path d="M25.813 69.973V63.149H39.465V56.32H42.879V52.906H15.574V110.933H18.988V107.519H46.293V104.105H49.707V100.691H53.121V93.867H56.535V90.453H59.945V66.559H53.121V90.454H49.707V93.868H46.293V97.282H25.813V69.973Z" fill="#FF0000"/>
<path d="M29.227 29.012V25.602H25.813V22.188H22.399V49.493H25.813V29.013H29.227M32.641 18.775H29.227V22.189H32.641V18.775ZM25.813 11.947V15.361H29.227V11.947H25.813ZM56.536 29.013V25.603H53.122V29.013H56.536ZM42.879 39.254H39.465V42.668H42.879V39.254ZM39.465 35.84V32.426H36.055V35.84H39.465M36.055 29.012V25.602H32.641V29.012H36.055ZM63.36 11.946H59.946V49.493H63.36V11.945M104.321 46.078V35.84H100.907V46.078H104.321ZM100.907 49.492V46.078H97.493V49.492H100.907ZM100.907 35.84V32.426H97.493V35.84H100.907ZM94.079 29.012H90.669V32.426H94.079V29.012M80.426 18.773H77.012V29.011H83.84V25.601H80.426V18.773ZM80.426 18.773H83.84V15.359H80.426V18.773ZM94.078 11.945V15.359H97.492V11.945H94.078ZM104.32 22.187V15.359H100.906V22.187H104.32Z" fill="#808080"/>
<path d="M53.121 11.945V18.773H49.707V25.601H46.293V32.425H42.879V42.667H39.465V35.84H36.055V29.012H32.641V22.188H29.227V15.36H25.813V11.946H18.989V49.493H22.399V22.188H25.813V25.602H29.227V32.426H32.641V39.254H36.055V46.078H39.465V49.492H42.879V46.078H46.293V39.254H49.707V32.426H53.121V25.602H56.535V49.493H59.945V11.945H53.121M80.426 39.254H73.602V46.078H77.012V49.492H97.492V46.078H100.906V35.84H97.492V32.426H90.668V35.84H94.078V39.254H97.492V42.668H94.078V46.078H80.426V39.254M83.84 29.012H80.426V32.426H90.668V29.012H83.84M80.426 18.774V15.36H73.602V29.012H77.012V18.773H80.426M94.078 15.359V18.773H97.492V22.187H100.906V15.359H94.078M94.078 15.359V11.945H80.426V15.359H94.078Z" fill="#C0C0C0"/>
<path d="M94.078 76.801V83.625H97.492V87.039H100.906V93.867H97.492V97.281H83.84V93.867H80.426V90.453H70.188V93.867H73.602V100.691H77.012V104.105H83.84V107.519H100.906V104.105H104.32V100.691H107.734V97.281H111.148V83.625H107.734V80.215H100.906V76.801H94.078ZM100.906 56.321V52.907H77.012V56.321H73.602V59.735H70.188V73.387H73.602V76.801H77.012V66.559H80.426V63.149H100.906V66.559H107.734V63.149H111.148V59.735H107.734V56.32L100.906 56.321Z" fill="#FFFF00"/>
</svg>
