<svg width="128" height="128" viewBox="0 0 128 128" fill="none" xmlns="http://www.w3.org/2000/svg">
<path d="M3.67999 98.837C4.87699 98.637 6.44699 98.467 8.44399 98.467C10.897 98.467 12.694 99.037 13.836 100.064C14.892 100.977 15.52 102.374 15.52 104.087C15.52 105.827 15.006 107.197 14.037 108.197C12.724 109.594 10.584 110.307 8.15899 110.307C7.41599 110.307 6.73199 110.277 6.16099 110.137V117.84H3.67999V98.837ZM6.15999 108.11C6.70299 108.253 7.38799 108.31 8.21599 108.31C11.212 108.31 13.038 106.854 13.038 104.2C13.038 101.662 11.24 100.435 8.50099 100.435C7.41699 100.435 6.59099 100.521 6.16099 100.635V108.11H6.15999ZM18.626 97.58H21.136V106.198H21.194C21.6191 105.454 22.2409 104.842 22.991 104.428C23.734 104.001 24.619 103.715 25.561 103.715C27.416 103.715 30.383 104.855 30.383 109.622V117.839H27.87V109.906C27.87 107.68 27.043 105.796 24.675 105.796C23.048 105.796 21.765 106.938 21.308 108.308C21.165 108.65 21.138 109.021 21.138 109.506V117.838H18.626V97.58ZM34.457 108.538C34.457 106.768 34.4 105.343 34.343 104.03H36.598L36.712 106.4H36.769C37.795 104.715 39.421 103.716 41.675 103.716C45.015 103.716 47.525 106.541 47.525 110.736C47.525 115.699 44.5 118.154 41.248 118.154C39.421 118.154 37.823 117.354 36.994 115.984H36.938V123.489H34.456V108.537L34.457 108.538ZM36.94 112.218C36.94 112.59 36.997 112.932 37.054 113.246C37.511 114.986 39.024 116.186 40.82 116.186C43.473 116.186 45.015 114.016 45.015 110.85C45.015 108.082 43.559 105.714 40.905 105.714C39.195 105.714 37.597 106.941 37.11 108.824C37.025 109.138 36.94 109.509 36.94 109.851V112.221V112.218ZM50.632 113.36C51.802 113.96 53.6 114.56 55.454 114.56C57.451 114.56 58.507 113.732 58.507 112.476C58.507 111.276 57.595 110.593 55.282 109.766C52.087 108.652 50.004 106.883 50.004 104.086C50.004 100.806 52.742 98.296 57.279 98.296C59.447 98.296 61.044 98.752 62.187 99.266L61.217 102.776C59.963 102.168 58.5866 101.855 57.193 101.861C55.31 101.861 54.396 102.719 54.396 103.717C54.396 104.944 55.481 105.487 57.963 106.427C61.359 107.683 62.957 109.452 62.957 112.163C62.957 115.388 60.475 118.127 55.197 118.127C52.999 118.127 50.831 117.557 49.747 116.957L50.631 113.361L50.632 113.36ZM70.46 99.893V103.887H73.57V107.083H70.46V112.133C70.46 113.816 70.86 114.587 72.172 114.587C72.714 114.587 73.142 114.53 73.456 114.473L73.484 117.753C72.914 117.983 71.886 118.125 70.659 118.125C69.261 118.125 68.091 117.64 67.406 116.925C66.608 116.099 66.208 114.757 66.208 112.789V107.081H64.352V103.885H66.207V100.861L70.457 99.891L70.46 99.893ZM89.716 110.707C89.716 115.814 86.093 118.154 82.356 118.154C78.276 118.154 75.136 115.472 75.136 110.964C75.136 106.454 78.104 103.574 82.583 103.574C86.863 103.574 89.716 106.512 89.716 110.707ZM79.616 110.849C79.616 113.244 80.616 115.042 82.469 115.042C84.152 115.042 85.236 113.359 85.236 110.848C85.236 108.764 84.438 106.652 82.468 106.652C80.385 106.652 79.614 108.792 79.614 110.847L79.616 110.849ZM92.396 108.48C92.396 106.427 92.339 105.086 92.282 103.887H96.019L96.159 106.455H96.274C96.989 104.43 98.7 103.575 100.04 103.575C100.44 103.575 100.64 103.575 100.955 103.631V107.711C100.569 107.636 100.178 107.599 99.785 107.598C98.187 107.598 97.102 108.454 96.818 109.795C96.7586 110.115 96.7298 110.44 96.732 110.765V117.841H92.396V108.481V108.48ZM103.236 108.338C103.236 106.598 103.179 105.114 103.122 103.888H106.774L106.974 105.77H107.058C107.658 104.886 108.884 103.573 111.281 103.573C113.081 103.573 114.507 104.486 115.105 105.941H115.162C115.644 105.266 116.256 104.694 116.962 104.259C117.732 103.802 118.587 103.574 119.614 103.574C122.294 103.574 124.322 105.457 124.322 109.624V117.84H120.099V110.25C120.099 108.224 119.443 107.054 118.044 107.054C117.044 107.054 116.332 107.739 116.047 108.566C115.933 108.88 115.877 109.336 115.877 109.679V117.839H111.653V110.019C111.653 108.251 111.027 107.052 109.658 107.052C108.545 107.052 107.888 107.908 107.631 108.622C107.489 108.964 107.461 109.362 107.461 109.705V117.837H103.238V108.337L103.236 108.338ZM66.257 69.99C67.672 71.828 69.09 72.616 70.795 72.616C73.757 72.616 76.338 70.076 76.338 66.236V55.99C76.338 51.448 74.048 48.95 70.795 48.95C68.965 48.95 66.965 49.99 65.627 52.236V49.57H59.923V84.01H30.16V69.99C31.574 71.828 32.994 72.616 34.7 72.616C37.66 72.616 40.243 70.076 40.243 66.236V55.99C40.243 51.448 37.956 48.95 34.701 48.95C32.869 48.95 30.868 49.99 29.534 52.236V49.57H23.828V84.01H19.24V33.53H41.864V71.992H48.197V56.197C48.197 54.904 48.733 54.114 49.947 54.114C51.033 54.114 51.611 54.78 51.611 56.197V71.992H57.949V54.03C57.949 50.53 55.614 48.948 52.903 48.948C51.233 48.948 49.443 49.488 48.197 51.068V33.532H72.587C72.584 33.619 72.577 33.686 72.577 33.772L72.647 35.919C72.647 39.057 74.16 42.905 74.907 44.612C74.907 44.612 77.055 49.017 78.717 50.747C80.377 52.472 81.6 53.765 83.01 55.125C84.314 56.375 85.54 57.563 86.202 58.379C87.302 59.737 87.37 60.897 87.469 62.583C87.663 65.869 86.455 67.777 84.589 70.317C82.692 72.907 81.649 74.027 80.445 75.324C79.841 75.979 79.209 76.658 78.453 77.532L77.845 78.236C76.63 79.636 75.603 80.826 74.735 81.918L72.788 84.011H66.254V69.99H66.257ZM70.003 64.947V56.86C70.003 55.07 69.379 54.114 68.133 54.114C66.879 54.114 66.257 55.07 66.257 56.861V64.948C66.257 66.741 66.879 67.575 68.132 67.575C69.379 67.575 70.002 66.742 70.002 64.948L70.003 64.947ZM33.906 64.947V56.86C33.906 55.07 33.284 54.114 32.036 54.114C30.786 54.114 30.159 55.07 30.159 56.861V64.948C30.159 66.741 30.784 67.575 32.035 67.575C33.283 67.575 33.905 66.742 33.905 64.948L33.906 64.947Z" fill="#5058A6"/>
<path d="M103.69 16.55C105.144 14.866 106.344 13.502 107.33 12.262H85.2568C83.9448 13.939 81.2768 17.17 79.7548 20.037C77.7448 23.831 76.0888 26.679 75.9268 33.665L75.9968 35.918C75.9968 39.248 78.3838 44.138 78.3838 44.138C78.7558 45.008 80.0138 46.838 80.8198 47.958H80.8018C81.0688 48.312 81.2418 48.538 81.2418 48.538C83.6218 51.263 87.2218 54.308 88.8098 56.265C90.6678 58.562 90.7158 60.71 90.8128 62.381C91.0858 66.903 89.2528 69.631 87.2948 72.301C84.3378 76.337 83.2698 77.086 80.9948 79.726C79.5398 81.406 78.3448 82.77 77.3598 84.011H100.16C101.498 82.288 103.398 79.121 104.93 76.236C106.94 72.442 108.598 69.592 108.76 62.612L108.687 60.36C108.687 57.03 106.307 52.135 106.307 52.135C105.932 51.267 104.673 49.443 103.862 48.315H103.879C103.619 47.967 103.439 47.735 103.439 47.735C101.066 45.012 97.4608 41.967 95.8768 40.01C94.0168 37.717 93.9668 35.57 93.8668 33.892C93.5968 29.372 95.4268 26.642 97.3838 23.972C100.346 19.94 101.414 19.186 103.688 16.552L103.69 16.55Z" fill="#F58A1F"/>
</svg>
