<svg width="128" height="128" viewBox="0 0 128 128" fill="none" xmlns="http://www.w3.org/2000/svg">
<path fill-rule="evenodd" clip-rule="evenodd" d="M51.834 23.017C55.59 23.017 59.346 23.075 63.097 22.977C64.092 22.951 65.877 23.774 65.797 21.706C65.736 20.023 64.175 20.632 63.229 20.617C58.992 20.55 54.741 20.389 50.521 20.654C47.518 20.841 46.633 19.701 47.01 16.947C47.14 15.997 47.015 15.013 47.035 14.045C47.167 7.599 48.725 5.405 54.977 3.815C61.865 2.065 68.914 2.123 75.783 3.631C81.958 4.987 84.523 9.791 84.211 14.235C83.831 19.658 84.125 25.128 84.12 30.578C84.111 37.431 80.57 41.068 73.661 41.163C67.971 41.241 62.274 41.303 56.587 41.145C49.809 40.955 44.837 46.585 44.803 52.965C44.803 53.449 44.886 53.949 44.79 54.416C44.302 56.759 46.252 60.546 43.768 61.242C39.988 62.304 35.562 62.304 32.228 58.931C31.098 57.791 30.146 56.514 29.644 55.038C26.965 47.173 26.542 39.208 29.064 31.22C30.636 26.234 34.912 23.133 40.209 23.044C44.083 22.979 47.958 23.031 51.832 23.031L51.834 23.017V23.017ZM58.736 11.897C58.574 9.994 57.551 8.605 55.44 8.547C53.131 8.487 51.938 9.883 51.935 12.155C51.933 14.261 53.08 15.61 55.176 15.671C57.479 15.738 58.594 14.311 58.736 11.897V11.897Z" fill="#386F9F"/>
<path fill-rule="evenodd" clip-rule="evenodd" d="M80.824 61.572C76.584 61.572 72.342 61.535 68.102 61.602C67.147 61.614 65.545 61.01 65.495 62.643C65.439 64.495 67.158 64.013 68.25 64.024C72.49 64.077 76.734 64.122 80.973 64.004C83.151 63.944 84.04 64.361 84.203 66.929C84.94 78.554 79.895 79.559 70.59 81.674C65.252 82.887 59.529 82.244 54.265 79.886C49.912 77.939 47.241 75.133 47.578 69.879C47.912 64.693 47.968 59.44 47.569 54.259C47.089 48.006 50.979 43.407 58.544 43.405C63.634 43.404 68.758 43.016 73.804 43.48C81.019 44.142 86.676 37.888 86.924 30.616C86.934 30.375 86.872 30.116 86.934 29.892C87.57 27.657 85.308 24.335 88.334 23.206C92.907 21.501 98.064 23.293 100.4 26.763C103.345 31.132 103.743 36.273 104.219 41.293C104.734 46.704 103.216 51.798 100.943 56.679C99.399 59.989 96.803 61.589 93.186 61.594C89.066 61.597 84.947 61.594 80.826 61.594C80.824 61.586 80.824 61.579 80.824 61.572V61.572ZM79.72 72.372C79.267 70.306 78.335 68.896 75.935 68.837C73.439 68.777 72.795 70.644 72.808 72.311C72.822 74.083 73.316 76.263 76.018 76.059C78.264 75.887 79.359 74.496 79.72 72.372V72.372Z" fill="#FFCF46"/>
<path fill-rule="evenodd" clip-rule="evenodd" d="M14.129 114.849C14.129 117.431 14.246 119.849 14.074 122.246C14 123.28 15.14 125.226 12.971 125.224C11.059 125.224 10.568 123.702 10.629 121.863C10.746 118.353 10.663 114.836 10.663 111.323V103.325C10.663 98.505 11.956 96.873 16.566 95.875C20.852 94.943 24.22 96.386 25.952 100.138C27.684 103.891 27.818 107.758 26.085 111.576C24.377 115.338 21.231 116.742 17.201 115.627C16.283 115.377 15.356 115.16 14.129 114.849V114.849ZM14.129 105.401C14.129 106.731 14.309 108.087 14.092 109.381C13.59 112.372 15.5 113.109 17.752 113.641C19.979 114.167 21.506 113.22 22.399 111.258C23.9 107.968 24.152 104.575 23.012 101.096C22 98.004 19.663 97.642 16.935 98.026C14.241 98.409 13.876 100.241 14.111 102.506C14.211 103.461 14.129 104.436 14.129 105.401V105.401ZM43.116 114.689C41.271 115.169 39.669 115.681 38.029 115.989C34.439 116.66 31.781 114.689 30.846 111.095C29.686 106.647 30.668 102.216 30.698 97.778C30.711 95.755 32.583 96.544 33.878 95.46C33.878 100.21 33.896 104.31 33.872 108.407C33.859 110.465 34.391 112.157 36.337 113.242C38.485 114.44 40.247 113.299 42.117 112.53C43.457 111.979 43.29 110.854 43.292 109.784C43.302 105.912 43.291 102.044 43.304 98.172C43.306 97.217 43.207 96.05 44.617 96.097C45.874 96.138 46.421 96.885 46.4 98.255C46.309 104.662 46.49 111.078 46.23 117.476C46.033 122.314 42.62 125.269 37.71 125.486C36.975 125.517 36.205 125.585 35.93 124.673C35.511 123.269 36.648 123.534 37.395 123.295C42.796 121.577 43.502 120.551 43.116 114.689V114.689ZM65.94 98.064C67.369 97.389 68.19 96.771 69.093 96.604C74.16 95.667 78.043 96.024 78.033 102.849C78.026 106.364 78.035 109.88 78.026 113.394C78.024 114.378 78.087 115.336 76.62 115.421C75.073 115.513 74.733 114.628 74.74 113.415C74.758 110.028 74.85 106.641 74.847 103.255C74.845 100.625 74.308 98.297 70.963 98.305C68.029 98.31 65.951 100.5 65.936 103.522C65.9192 106.793 65.9202 110.065 65.939 113.336C65.942 114.498 65.967 115.517 64.287 115.421C62.774 115.331 62.96 114.311 62.96 113.372C62.95 104.772 62.992 96.163 62.919 87.557C62.906 86.049 63.501 85.113 64.839 85.049C66.727 84.962 65.862 86.613 65.89 87.441C66.013 90.812 65.94 94.191 65.94 98.064V98.064ZM81.93 105.775C81.739 99.06 84.924 95.475 90.69 95.683C93.584 95.789 95.755 97.073 97.156 99.573C99.631 103.995 99.296 108.419 96.618 112.56C94.778 115.404 91.948 116.745 88.498 116.013C85.096 115.293 82.432 112.23 81.95 108.66C81.822 107.715 81.93 106.736 81.93 105.775ZM95.25 105.932C95.098 104.76 95.125 103.126 94.637 101.668C93.97 99.668 92.754 98.058 90.273 97.948C87.77 97.84 86.521 99.303 85.686 101.328C84.375 104.507 84.46 107.699 85.88 110.821C86.792 112.832 88.2 114.304 90.64 113.896C93.043 113.495 94.461 111.92 94.952 109.583C95.175 108.524 95.139 107.415 95.25 105.933V105.932ZM102.257 106.827C102.257 105.615 102.234 104.405 102.261 103.199C102.317 100.874 101.576 98.298 104.711 97.11C108.301 95.754 111.859 94.738 115.473 96.837C116.825 97.623 117.323 99.051 117.337 100.567C117.374 104.798 117.318 109.031 117.375 113.262C117.395 114.738 117.007 115.476 115.348 115.436C113.53 115.393 113.913 114.153 113.925 113.163C113.968 109.783 114.203 106.406 114.139 103.031C114.055 98.781 111.723 97.048 107.75 98.091C106.102 98.525 105.072 99.325 105.153 101.365C105.314 105.347 105.19 109.343 105.205 113.332C105.209 114.488 105.226 115.512 103.558 115.415C102.03 115.327 102.28 114.27 102.268 113.353C102.24 111.177 102.26 109 102.257 106.827V106.827ZM58.689 97.403C58.439 97.699 58.229 98.163 58.009 98.167C54.045 98.222 55.145 101.181 55.043 103.376C54.946 105.421 55.043 107.476 55.014 109.527C54.984 111.565 55.161 113.459 57.641 114C58.352 114.154 58.676 114.564 58.528 115.274C58.365 116.058 57.74 116.027 57.121 116.019C54.271 115.969 52.158 113.954 52.074 111.004C51.988 107.99 52.105 104.969 52.034 101.958C51.997 100.528 52.74 98.703 50.434 98.136C50.181 98.075 50.091 97.358 49.926 96.949C53.002 95.984 51.726 93.331 52.148 91.318C52.348 90.365 53.253 90.104 54.108 90.023C54.973 89.941 54.98 90.641 55.008 91.226C55.122 93.546 53.921 96.651 58.192 96.482C58.335 96.477 58.502 97.044 58.689 97.402V97.403Z" fill="#386F9F"/>
</svg>
